# Blender v2.79 (sub 0) OBJ File: 'chair1.blend'
# www.blender.org
mtllib chair1.mtl
o Cube.012_Cube.015
v 0.629299 2.765968 -1.028586
v 0.629299 2.806408 -0.878386
v -0.670248 2.806408 -0.878386
v -0.670247 2.765968 -1.028586
v 0.629299 2.905971 -1.066281
v 0.629298 2.946411 -0.916081
v -0.670248 2.946411 -0.916081
v -0.670247 2.905971 -1.066281
v -0.020474 2.765968 -1.068936
v -0.020475 2.806408 -0.918736
v -0.020474 2.905971 -1.106631
v -0.020475 2.946411 -0.956431
vn 0.0161 -0.9655 0.2599
vn -0.0161 0.9655 -0.2600
vn 1.0000 0.0000 0.0000
vn 0.0599 0.2595 0.9639
vn -1.0000 -0.0000 -0.0000
vn -0.0599 -0.2595 -0.9639
vn 0.0599 -0.2595 -0.9639
vn -0.0599 0.2595 0.9639
vn 0.0161 0.9655 -0.2600
vn -0.0161 -0.9655 0.2599
usemtl Material
s off
f 9//1 10//1 3//1 4//1
f 11//2 8//2 7//2 12//2
f 1//3 5//3 6//3 2//3
f 10//4 12//4 7//4 3//4
f 3//5 7//5 8//5 4//5
f 11//6 9//6 4//6 8//6
f 5//7 1//7 9//7 11//7
f 2//8 6//8 12//8 10//8
f 5//9 11//9 12//9 6//9
f 1//10 2//10 10//10 9//10
o Cube.011_Cube.014
v 0.640160 3.212766 -1.101487
v 0.640160 3.253206 -0.951288
v -0.659387 3.253206 -0.951288
v -0.659386 3.212766 -1.101487
v 0.640160 3.352769 -1.139182
v 0.640159 3.393209 -0.988982
v -0.659387 3.393209 -0.988982
v -0.659386 3.352769 -1.139182
v -0.009613 3.212766 -1.141837
v -0.009613 3.253206 -0.991638
v -0.009613 3.352769 -1.179532
v -0.009614 3.393209 -1.029332
vn 0.0161 -0.9655 0.2599
vn -0.0161 0.9655 -0.2600
vn 1.0000 0.0000 0.0000
vn 0.0599 0.2595 0.9639
vn -1.0000 -0.0000 -0.0000
vn -0.0599 -0.2595 -0.9639
vn 0.0599 -0.2595 -0.9639
vn -0.0599 0.2595 0.9639
vn 0.0161 0.9655 -0.2599
vn -0.0161 -0.9655 0.2600
usemtl Material
s off
f 21//11 22//11 15//11 16//11
f 23//12 20//12 19//12 24//12
f 13//13 17//13 18//13 14//13
f 22//14 24//14 19//14 15//14
f 15//15 19//15 20//15 16//15
f 23//16 21//16 16//16 20//16
f 17//17 13//17 21//17 23//17
f 14//18 18//18 24//18 22//18
f 17//19 23//19 24//19 18//19
f 13//20 14//20 22//20 21//20
o Cube.010_Cube.013
v 0.649773 4.029528 -1.338577
v 0.649773 4.069968 -1.188378
v -0.649773 4.069968 -1.188378
v -0.649773 4.029528 -1.338577
v 0.649773 4.169531 -1.376272
v 0.649773 4.209971 -1.226072
v -0.649773 4.209971 -1.226072
v -0.649773 4.169531 -1.376272
v 0.000000 4.029528 -1.378927
v 0.000000 4.069968 -1.228727
v 0.000000 4.169531 -1.416622
v -0.000000 4.209971 -1.266422
vn 0.0161 -0.9655 0.2600
vn -0.0161 0.9655 -0.2599
vn 1.0000 0.0000 0.0000
vn 0.0599 0.2595 0.9639
vn -1.0000 -0.0000 -0.0000
vn -0.0599 -0.2595 -0.9639
vn 0.0599 -0.2595 -0.9639
vn -0.0599 0.2595 0.9639
vn 0.0161 0.9655 -0.2600
vn -0.0161 -0.9655 0.2600
usemtl Material
s off
f 33//21 34//21 27//21 28//21
f 35//22 32//22 31//22 36//22
f 25//23 29//23 30//23 26//23
f 34//24 36//24 31//24 27//24
f 27//25 31//25 32//25 28//25
f 35//26 33//26 28//26 32//26
f 29//27 25//27 33//27 35//27
f 26//28 30//28 36//28 34//28
f 29//29 35//29 36//29 30//29
f 25//30 26//30 34//30 33//30
o Cube.008_Cube.011
v 0.649773 3.611892 -1.221263
v 0.649773 3.652332 -1.071063
v -0.649773 3.652332 -1.071063
v -0.649773 3.611892 -1.221263
v 0.649773 3.751895 -1.258958
v 0.649773 3.792335 -1.108758
v -0.649773 3.792335 -1.108758
v -0.649773 3.751895 -1.258958
v 0.000000 3.611892 -1.261613
v 0.000000 3.652332 -1.111413
v 0.000000 3.751895 -1.299307
v -0.000000 3.792335 -1.149108
vn 0.0161 -0.9655 0.2600
vn -0.0161 0.9655 -0.2599
vn 1.0000 0.0000 0.0000
vn 0.0599 0.2595 0.9639
vn -1.0000 -0.0000 -0.0000
vn -0.0599 -0.2595 -0.9639
vn 0.0599 -0.2595 -0.9639
vn -0.0599 0.2595 0.9639
vn 0.0161 0.9655 -0.2600
vn -0.0161 -0.9655 0.2599
usemtl Material
s off
f 45//31 46//31 39//31 40//31
f 47//32 44//32 43//32 48//32
f 37//33 41//33 42//33 38//33
f 46//34 48//34 43//34 39//34
f 39//35 43//35 44//35 40//35
f 47//36 45//36 40//36 44//36
f 41//37 37//37 45//37 47//37
f 38//38 42//38 48//38 46//38
f 41//39 47//39 48//39 42//39
f 37//40 38//40 46//40 45//40
o Cube.007_Cube.010
v 0.649773 4.029528 -1.338577
v 0.649773 4.069968 -1.188378
v -0.649773 4.069968 -1.188378
v -0.649773 4.029528 -1.338577
v 0.649773 4.169531 -1.376272
v 0.649773 4.209971 -1.226072
v -0.649773 4.209971 -1.226072
v -0.649773 4.169531 -1.376272
v 0.000000 4.029528 -1.378927
v 0.000000 4.069968 -1.228727
v 0.000000 4.169531 -1.416622
v -0.000000 4.209971 -1.266422
vn 0.0161 -0.9655 0.2600
vn -0.0161 0.9655 -0.2599
vn 1.0000 0.0000 0.0000
vn 0.0599 0.2595 0.9639
vn -1.0000 -0.0000 -0.0000
vn -0.0599 -0.2595 -0.9639
vn 0.0599 -0.2595 -0.9639
vn -0.0599 0.2595 0.9639
vn 0.0161 0.9655 -0.2600
vn -0.0161 -0.9655 0.2600
usemtl Material
s off
f 57//41 58//41 51//41 52//41
f 59//42 56//42 55//42 60//42
f 49//43 53//43 54//43 50//43
f 58//44 60//44 55//44 51//44
f 51//45 55//45 56//45 52//45
f 59//46 57//46 52//46 56//46
f 53//47 49//47 57//47 59//47
f 50//48 54//48 60//48 58//48
f 53//49 59//49 60//49 54//49
f 49//50 50//50 58//50 57//50
o Cube.006_Cube.009
v 0.670152 1.863611 -0.690614
v 0.670152 4.379960 -1.273825
v 0.670152 1.863611 -0.902834
v 0.670152 4.379960 -1.486045
v 0.882372 1.863611 -0.690614
v 0.882372 4.379960 -1.273825
v 0.882372 1.863611 -0.902834
v 0.882372 4.379960 -1.486045
v 0.683379 2.732540 -0.821275
v 0.661624 3.551862 -0.999583
v 0.657046 3.506628 -1.206875
v 0.678801 2.687305 -1.028568
v 0.869146 3.511031 -1.212520
v 0.890901 2.691709 -1.034213
v 0.873724 3.556265 -1.005228
v 0.895479 2.736943 -0.826920
vn -0.9998 0.0157 0.0092
vn -0.0095 -0.3022 -0.9532
vn 0.9998 -0.0159 -0.0092
vn 0.0094 0.3121 0.9500
vn 0.0000 -1.0000 0.0000
vn 0.0000 1.0000 0.0000
vn 0.0116 0.1513 0.9884
vn 0.0216 0.2131 0.9768
vn 0.9999 -0.0142 -0.0094
vn 0.9994 0.0207 -0.0266
vn -0.0115 -0.1537 -0.9881
vn -0.0216 -0.2131 -0.9768
vn -0.9999 0.0143 0.0094
vn -0.9994 -0.0207 0.0266
usemtl None
s off
f 70//51 62//51 64//51 71//51
f 71//52 64//52 68//52 73//52
f 73//53 68//53 66//53 75//53
f 75//54 66//54 62//54 70//54
f 63//55 67//55 65//55 61//55
f 68//56 64//56 62//56 66//56
f 65//57 76//57 69//57 61//57
f 76//58 75//58 70//58 69//58
f 67//59 74//59 76//59 65//59
f 74//60 73//60 75//60 76//60
f 63//61 72//61 74//61 67//61
f 72//62 71//62 73//62 74//62
f 61//63 69//63 72//63 63//63
f 69//64 70//64 71//64 72//64
o Cube.001_Cube.008
v -0.873578 1.863611 -0.690614
v -0.873578 4.379960 -1.273825
v -0.873578 1.863611 -0.902834
v -0.873578 4.379960 -1.486045
v -0.661358 1.863611 -0.690614
v -0.661358 4.379960 -1.273825
v -0.661358 1.863611 -0.902834
v -0.661358 4.379960 -1.486045
v -0.860351 2.732540 -0.821275
v -0.882107 3.551862 -0.999583
v -0.886684 3.506628 -1.206875
v -0.864929 2.687305 -1.028568
v -0.674585 3.511031 -1.212520
v -0.652830 2.691709 -1.034213
v -0.670007 3.556265 -1.005228
v -0.648252 2.736943 -0.826920
vn -0.9998 0.0157 0.0092
vn -0.0095 -0.3022 -0.9532
vn 0.9998 -0.0159 -0.0092
vn 0.0094 0.3121 0.9500
vn 0.0000 -1.0000 0.0000
vn 0.0000 1.0000 0.0000
vn 0.0116 0.1513 0.9884
vn 0.0216 0.2131 0.9768
vn 0.9999 -0.0142 -0.0094
vn 0.9994 0.0207 -0.0266
vn -0.0115 -0.1537 -0.9881
vn -0.0216 -0.2131 -0.9768
vn -0.9999 0.0143 0.0094
vn -0.9994 -0.0207 0.0266
usemtl None
s off
f 86//65 78//65 80//65 87//65
f 87//66 80//66 84//66 89//66
f 89//67 84//67 82//67 91//67
f 91//68 82//68 78//68 86//68
f 79//69 83//69 81//69 77//69
f 84//70 80//70 78//70 82//70
f 81//71 92//71 85//71 77//71
f 92//72 91//72 86//72 85//72
f 83//73 90//73 92//73 81//73
f 90//74 89//74 91//74 92//74
f 79//75 88//75 90//75 83//75
f 88//76 87//76 89//76 90//76
f 77//77 85//77 88//77 79//77
f 85//78 86//78 87//78 88//78
o Cube.005
v -0.873578 0.027431 0.865171
v -0.873578 1.777379 0.865171
v -0.873578 0.027431 0.652951
v -0.873578 1.777379 0.652951
v -0.661358 0.027431 0.865171
v -0.661358 1.777379 0.865171
v -0.661358 0.027431 0.652951
v -0.661358 1.777379 0.652951
vn -1.0000 0.0000 0.0000
vn 0.0000 0.0000 -1.0000
vn 1.0000 0.0000 0.0000
vn 0.0000 0.0000 1.0000
vn 0.0000 -1.0000 0.0000
vn 0.0000 1.0000 0.0000
usemtl None
s off
f 93//79 94//79 96//79 95//79
f 95//80 96//80 100//80 99//80
f 99//81 100//81 98//81 97//81
f 97//82 98//82 94//82 93//82
f 95//83 99//83 97//83 93//83
f 100//84 96//84 94//84 98//84
o Cube.004
v 0.695281 0.027431 0.865171
v 0.695281 1.777379 0.865171
v 0.695281 0.027431 0.652951
v 0.695281 1.777379 0.652951
v 0.907501 0.027431 0.865171
v 0.907501 1.777379 0.865171
v 0.907501 0.027431 0.652951
v 0.907501 1.777379 0.652951
vn -1.0000 0.0000 0.0000
vn 0.0000 0.0000 -1.0000
vn 1.0000 0.0000 0.0000
vn 0.0000 0.0000 1.0000
vn 0.0000 -1.0000 0.0000
vn 0.0000 1.0000 0.0000
usemtl None
s off
f 101//85 102//85 104//85 103//85
f 103//86 104//86 108//86 107//86
f 107//87 108//87 106//87 105//87
f 105//88 106//88 102//88 101//88
f 103//89 107//89 105//89 101//89
f 108//90 104//90 102//90 106//90
o Cube.003
v 0.695281 0.027431 -0.690614
v 0.695281 1.777379 -0.690614
v 0.695281 0.027431 -0.902834
v 0.695281 1.777379 -0.902834
v 0.907501 0.027431 -0.690614
v 0.907501 1.777379 -0.690614
v 0.907501 0.027431 -0.902834
v 0.907501 1.777379 -0.902834
vn -1.0000 0.0000 0.0000
vn 0.0000 0.0000 -1.0000
vn 1.0000 0.0000 0.0000
vn 0.0000 0.0000 1.0000
vn 0.0000 -1.0000 0.0000
vn 0.0000 1.0000 0.0000
usemtl None
s off
f 109//91 110//91 112//91 111//91
f 111//92 112//92 116//92 115//92
f 115//93 116//93 114//93 113//93
f 113//94 114//94 110//94 109//94
f 111//95 115//95 113//95 109//95
f 116//96 112//96 110//96 114//96
o Cube.002
v -0.873578 0.027431 -0.690614
v -0.873578 1.777379 -0.690614
v -0.873578 0.027431 -0.902834
v -0.873578 1.777379 -0.902834
v -0.661358 0.027431 -0.690614
v -0.661358 1.777379 -0.690614
v -0.661358 0.027431 -0.902834
v -0.661358 1.777379 -0.902834
vn -1.0000 0.0000 0.0000
vn 0.0000 0.0000 -1.0000
vn 1.0000 0.0000 0.0000
vn 0.0000 0.0000 1.0000
vn 0.0000 -1.0000 0.0000
vn 0.0000 1.0000 0.0000
usemtl None
s off
f 117//97 118//97 120//97 119//97
f 119//98 120//98 124//98 123//98
f 123//99 124//99 122//99 121//99
f 121//100 122//100 118//100 117//100
f 119//101 123//101 121//101 117//101
f 124//102 120//102 118//102 122//102
o Cube
v 1.000000 1.767318 -1.000000
v 1.000000 1.767318 1.000000
v -1.000000 1.767318 1.000000
v -1.000000 1.767318 -1.000000
v 1.000000 1.945732 -0.999999
v 0.999999 1.945732 1.000001
v -1.000000 1.945732 1.000000
v -1.000000 1.945732 -1.000000
vn 0.0000 -1.0000 -0.0000
vn 0.0000 1.0000 0.0000
vn 1.0000 0.0000 0.0000
vn -0.0000 -0.0000 1.0000
vn -1.0000 -0.0000 -0.0000
vn 0.0000 0.0000 -1.0000
usemtl Material
s off
f 125//103 126//103 127//103 128//103
f 129//104 132//104 131//104 130//104
f 125//105 129//105 130//105 126//105
f 126//106 130//106 131//106 127//106
f 127//107 131//107 132//107 128//107
f 129//108 125//108 128//108 132//108
